<?xml version="1.0" encoding="UTF-8" standalone="no"?>
<!-- Created with Inkscape (http://www.inkscape.org/) -->
<svg xmlns:inkscape="http://www.inkscape.org/namespaces/inkscape" xmlns:rdf="http://www.w3.org/1999/02/22-rdf-syntax-ns#" xmlns="http://www.w3.org/2000/svg" xmlns:xlink="http://www.w3.org/1999/xlink" xmlns:ns1="http://sozi.baierouge.fr" xmlns:cc="http://creativecommons.org/ns#" xmlns:sodipodi="http://sodipodi.sourceforge.net/DTD/sodipodi-0.dtd" xmlns:dc="http://purl.org/dc/elements/1.1/" id="svg2" xml:space="preserve" viewBox="0 0 30.762 40.273" version="1.1" inkscape:version="0.91 r13725">
  <defs id="defs6">
    <clipPath id="clipPath18">
      <path id="path20" d="m23.32 15.527 0.801 2.481v-1.602c0-0.801-0.375-1.828-1.121-3.078-0.266-0.43-0.719-0.922-1.359-1.48-0.055-0.055-0.602-0.496-1.641-1.321-0.641-0.562-1.105-0.961-1.398-1.199-0.536-0.402-1.028-0.64-1.481-0.723-2.242-0.398-4.148-0.531-5.723-0.398-0.984 0.078-2 0.465-3.039 1.16l-1.16 0.981c0.297-0.129 0.899-0.375 1.801-0.743 1.148-0.453 2.027-0.691 2.641-0.718 0.425 0 1.347 0.039 2.757 0.121 1.254 0 2.497 0.344 3.723 1.039 0.504 0.266 1.332 0.851 2.481 1.758 0.691 0.562 1.519 1.668 2.48 3.32l0.238 0.402z" inkscape:connector-curvature="0"/>
    </clipPath>
    <clipPath id="clipPath26">
      <path id="path28" d="m-6.6004-15.327h22.5v13.75h-22.5v-13.75z" inkscape:connector-curvature="0"/>
    </clipPath>
    <radialGradient id="radialGradient30" gradientUnits="userSpaceOnUse" cy="-8.9063" cx="4.0996" r="8.7291">
      <stop id="stop32" style="stop-color:#ffffff;stop-opacity:.14899" offset="0"/>
      <stop id="stop34" style="stop-color:#ffffff;stop-opacity:.14899" offset=".21960"/>
      <stop id="stop36" style="stop-color:#ffffff;stop-opacity:.14899" offset="1"/>
    </radialGradient>
    <mask id="mask38">
      <g id="g40">
        <g id="g42" clip-path="url(#clipPath26)">
          <path id="path44" style="fill:url(#radialGradient30)" d="m-6.6004-15.327h22.5v13.75h-22.5v-13.75z" inkscape:connector-curvature="0"/>
        </g>
      </g>
    </mask>
    <radialGradient id="radialGradient48" gradientUnits="userSpaceOnUse" cy="-8.9063" cx="4.0996" r="8.7291">
      <stop id="stop50" style="stop-color:#000000" offset="0"/>
      <stop id="stop52" style="stop-color:#000000" offset=".21960"/>
      <stop id="stop54" style="stop-color:#000000" offset="1"/>
    </radialGradient>
    <clipPath id="clipPath62">
      <path id="path64" d="m23.801 26.926c0.48-0.641 0.719-1.106 0.719-1.399 0-0.105 0.027-0.547 0.082-1.32 0.023-0.828 0-1.426-0.082-1.801l-0.161 0.442c-0.48 1.465-1.027 2.691-1.64 3.679-0.371 0.559-0.813 1.078-1.321 1.559-0.558 0.535-0.851 0.812-0.878 0.84-0.133 0.16-0.321 0.32-0.559 0.48l-0.359 0.199 1.32-0.519c0.906-0.375 1.437-0.664 1.598-0.879 0.105-0.105 0.292-0.281 0.562-0.519 0.266-0.215 0.504-0.469 0.719-0.762z" inkscape:connector-curvature="0"/>
    </clipPath>
    <clipPath id="clipPath70">
      <path id="path72" d="m8.3996 1.9845h7.5v10h-7.5v-10z" inkscape:connector-curvature="0"/>
    </clipPath>
    <radialGradient id="radialGradient74" gradientUnits="userSpaceOnUse" cy="7.25" cx="12.25" r="3.8625">
      <stop id="stop76" style="stop-color:#ffffff;stop-opacity:.14899" offset="0"/>
      <stop id="stop78" style="stop-color:#ffffff;stop-opacity:.14899" offset=".21960"/>
      <stop id="stop80" style="stop-color:#ffffff;stop-opacity:.14899" offset="1"/>
    </radialGradient>
    <mask id="mask82">
      <g id="g84">
        <g id="g86" clip-path="url(#clipPath70)">
          <path id="path88" style="fill:url(#radialGradient74)" d="m8.3996 1.9845h7.5v10h-7.5v-10z" inkscape:connector-curvature="0"/>
        </g>
      </g>
    </mask>
    <radialGradient id="radialGradient92" gradientUnits="userSpaceOnUse" cy="7.25" cx="12.25" r="3.8625">
      <stop id="stop94" style="stop-color:#000000" offset="0"/>
      <stop id="stop96" style="stop-color:#000000" offset=".21960"/>
      <stop id="stop98" style="stop-color:#000000" offset="1"/>
    </radialGradient>
    <clipPath id="clipPath106">
      <path id="path108" d="m3.719 29.008c0.668 0.133 1.269 0.199 1.801 0.199-0.665-0.055-1.372-0.414-2.122-1.082-0.238-0.211-0.679-0.934-1.316-2.16-0.75-1.438-1.137-2.52-1.16-3.238-0.055-0.614-0.121-1.161-0.203-1.641-0.078-0.375-0.117-0.664-0.117-0.879v-1.801c0.078-0.535 0.277-1.226 0.597-2.078-0.183 0.293-0.387 0.703-0.597 1.238-0.403 1.012-0.602 2.067-0.602 3.161 0 1.359 0.016 2.214 0.043 2.558 0.023 0.426 0.117 0.801 0.277 1.121 0.242 0.696 0.453 1.266 0.641 1.719 0.32 0.855 0.601 1.387 0.84 1.602 0.215 0.16 0.48 0.414 0.801 0.761 0.343 0.266 0.718 0.438 1.117 0.52z" inkscape:connector-curvature="0"/>
    </clipPath>
    <clipPath id="clipPath114">
      <path id="path116" d="m-15.35-4.8651h7.5v16.25h-7.5v-16.25z" inkscape:connector-curvature="0"/>
    </clipPath>
    <radialGradient id="radialGradient118" gradientUnits="userSpaceOnUse" cy="3.2002" cx="-11.9" r="6.193">
      <stop id="stop120" style="stop-color:#ffffff;stop-opacity:.14899" offset="0"/>
      <stop id="stop122" style="stop-color:#ffffff;stop-opacity:.14899" offset=".21960"/>
      <stop id="stop124" style="stop-color:#ffffff;stop-opacity:.14899" offset="1"/>
    </radialGradient>
    <mask id="mask126">
      <g id="g128">
        <g id="g130" clip-path="url(#clipPath114)">
          <path id="path132" style="fill:url(#radialGradient118)" d="m-15.35-4.8651h7.5v16.25h-7.5v-16.25z" inkscape:connector-curvature="0"/>
        </g>
      </g>
    </mask>
    <radialGradient id="radialGradient136" gradientUnits="userSpaceOnUse" cy="3.2002" cx="-11.9" r="6.193">
      <stop id="stop138" style="stop-color:#000000" offset="0"/>
      <stop id="stop140" style="stop-color:#000000" offset=".21960"/>
      <stop id="stop142" style="stop-color:#000000" offset="1"/>
    </radialGradient>
    <clipPath id="clipPath150">
      <path id="path152" d="m13.602 31.727c-0.614 0.078-1.094 0.105-1.442 0.078-1.039 0-1.668 0.015-1.879 0.043 0.344 0.293 1.078 0.414 2.199 0.359 0.321 0 0.786-0.16 1.399-0.48 0.082-0.043 0.16-0.082 0.242-0.122l-0.519 0.122z" inkscape:connector-curvature="0"/>
    </clipPath>
    <clipPath id="clipPath158">
      <path id="path160" d="m-2.8504 13.885h6.25v1.25h-6.25v-1.25z" inkscape:connector-curvature="0"/>
    </clipPath>
    <radialGradient id="radialGradient162" gradientUnits="userSpaceOnUse" cy="14.45" cx=".64990" r="2.25">
      <stop id="stop164" style="stop-color:#ffffff;stop-opacity:.14899" offset="0"/>
      <stop id="stop166" style="stop-color:#ffffff;stop-opacity:.14899" offset=".21960"/>
      <stop id="stop168" style="stop-color:#ffffff;stop-opacity:.14899" offset="1"/>
    </radialGradient>
    <mask id="mask170">
      <g id="g172">
        <g id="g174" clip-path="url(#clipPath158)">
          <path id="path176" style="fill:url(#radialGradient162)" d="m-2.8504 13.885h6.25v1.25h-6.25v-1.25z" inkscape:connector-curvature="0"/>
        </g>
      </g>
    </mask>
    <radialGradient id="radialGradient180" gradientUnits="userSpaceOnUse" cy="14.45" cx=".64990" r="2.25">
      <stop id="stop182" style="stop-color:#000000" offset="0"/>
      <stop id="stop184" style="stop-color:#000000" offset=".21960"/>
      <stop id="stop186" style="stop-color:#000000" offset="1"/>
    </radialGradient>
    <clipPath id="clipPath194">
      <path id="path196" d="m4.68 10.527c-0.055 0.078-0.282 0.598-0.68 1.559-0.293 0.535-0.426 0.973-0.398 1.32 0.105-0.105 0.21-0.265 0.32-0.48 0.105-0.16 0.387-0.426 0.84-0.801 1.066-0.852 1.746-1.492 2.039-1.918l1.398-1.281c-1.039 0.265-1.679 0.441-1.918 0.519-0.75 0.266-1.281 0.629-1.601 1.082z" inkscape:connector-curvature="0"/>
    </clipPath>
    <clipPath id="clipPath202">
      <path id="path204" d="m-11.6-15.115h7.5v7.5h-7.5v-7.5z" inkscape:connector-curvature="0"/>
    </clipPath>
    <radialGradient id="radialGradient206" gradientUnits="userSpaceOnUse" cy="-11.3" cx="-7.9502" r="2.8252">
      <stop id="stop208" style="stop-color:#ffffff;stop-opacity:.14899" offset="0"/>
      <stop id="stop210" style="stop-color:#ffffff;stop-opacity:.14899" offset=".21960"/>
      <stop id="stop212" style="stop-color:#ffffff;stop-opacity:.14899" offset="1"/>
    </radialGradient>
    <mask id="mask214">
      <g id="g216">
        <g id="g218" clip-path="url(#clipPath202)">
          <path id="path220" style="fill:url(#radialGradient206)" d="m-11.6-15.115h7.5v7.5h-7.5v-7.5z" inkscape:connector-curvature="0"/>
        </g>
      </g>
    </mask>
    <radialGradient id="radialGradient224" gradientUnits="userSpaceOnUse" cy="-11.3" cx="-7.9502" r="2.8252">
      <stop id="stop226" style="stop-color:#000000" offset="0"/>
      <stop id="stop228" style="stop-color:#000000" offset=".21960"/>
      <stop id="stop230" style="stop-color:#000000" offset="1"/>
    </radialGradient>
    <clipPath id="clipPath238">
      <path id="path240" d="m18.719 10.605 1.281 0.2c-0.293-0.426-0.469-0.68-0.52-0.758-0.187-0.188-0.441-0.32-0.761-0.402-0.453-0.079-0.785-0.157-1-0.239l-0.797-0.199c-1.414-0.215-2.254-0.215-2.524 0 0.082 0.078 0.227 0.133 0.442 0.16 0.105 0 0.254 0.012 0.441 0.039l1.36 0.399c1.144 0.375 1.839 0.64 2.078 0.8z" inkscape:connector-curvature="0"/>
    </clipPath>
    <clipPath id="clipPath246">
      <path id="path248" d="m2.1496-14.465h7.5v3.75h-7.5v-3.75z" inkscape:connector-curvature="0"/>
    </clipPath>
    <radialGradient id="radialGradient250" gradientUnits="userSpaceOnUse" cy="-12.85" cx="6.1499" r="2.6">
      <stop id="stop252" style="stop-color:#ffffff;stop-opacity:.14899" offset="0"/>
      <stop id="stop254" style="stop-color:#ffffff;stop-opacity:.14899" offset=".21960"/>
      <stop id="stop256" style="stop-color:#ffffff;stop-opacity:.14899" offset="1"/>
    </radialGradient>
    <mask id="mask258">
      <g id="g260">
        <g id="g262" clip-path="url(#clipPath246)">
          <path id="path264" style="fill:url(#radialGradient250)" d="m2.1496-14.465h7.5v3.75h-7.5v-3.75z" inkscape:connector-curvature="0"/>
        </g>
      </g>
    </mask>
    <radialGradient id="radialGradient268" gradientUnits="userSpaceOnUse" cy="-12.85" cx="6.1499" r="2.6">
      <stop id="stop270" style="stop-color:#000000" offset="0"/>
      <stop id="stop272" style="stop-color:#000000" offset=".21960"/>
      <stop id="stop274" style="stop-color:#000000" offset="1"/>
    </radialGradient>
    <clipPath id="clipPath282">
      <path id="path284" d="m8.281 10.688c-0.613 0.238-1.375 0.812-2.281 1.718l8.199 15c0 0.399 0.266 0.785 0.801 1.16 0.426 0.266 0.879 0.454 1.359 0.559 1.016 0.27 1.856 0.27 2.52 0 1.816-0.746 3.32-2.184 4.519-4.32 0.641-1.012 0.977-1.934 1-2.758l0.122-2.641c0-0.961-0.067-1.625-0.2-2l-0.281-0.601c-0.078-0.106-0.16-0.172-0.238-0.2-0.16-0.027-0.254-0.05-0.281-0.078-0.504-0.214-0.786-0.48-0.84-0.8v-0.321c0.132-0.16 0.199-0.226 0.199-0.199 0-0.215-0.117-0.453-0.359-0.719-0.055-0.136-0.079-0.363-0.079-0.683-0.082-0.184-0.281-0.399-0.601-0.637-0.106-0.109-0.598-0.457-1.481-1.043-0.613-0.613-1.105-1.051-1.48-1.32-0.453-0.344-1.238-0.598-2.359-0.758-0.586-0.082-1.52-0.121-2.801-0.121-1.145 0-2 0.027-2.559 0.082-0.906 0.078-1.867 0.305-2.879 0.68z" inkscape:connector-curvature="0"/>
    </clipPath>
    <clipPath id="clipPath290">
      <path id="path292" d="m-7.8504-14.015h23.75v26.25h-23.75v-26.25z" inkscape:connector-curvature="0"/>
    </clipPath>
    <radialGradient id="radialGradient294" gradientUnits="userSpaceOnUse" cy="-.75" cx="3.6997" r="11.838">
      <stop id="stop296" style="stop-color:#ffffff;stop-opacity:.14899" offset="0"/>
      <stop id="stop298" style="stop-color:#ffffff;stop-opacity:.14899" offset=".51370"/>
      <stop id="stop300" style="stop-color:#ffffff;stop-opacity:.14899" offset="1"/>
    </radialGradient>
    <mask id="mask302">
      <g id="g304">
        <g id="g306" clip-path="url(#clipPath290)">
          <path id="path308" style="fill:url(#radialGradient294)" d="m-7.8504-14.015h23.75v26.25h-23.75v-26.25z" inkscape:connector-curvature="0"/>
        </g>
      </g>
    </mask>
    <radialGradient id="radialGradient312" gradientUnits="userSpaceOnUse" cy="-.75" cx="3.6997" r="11.838">
      <stop id="stop314" style="stop-color:#ffffff" offset="0"/>
      <stop id="stop316" style="stop-color:#ffffff" offset=".51370"/>
      <stop id="stop318" style="stop-color:#ffffff" offset="1"/>
    </radialGradient>
    <clipPath id="clipPath326">
      <path id="path328" d="m9.121 31.926 1.399-0.52c-0.532 0.028-0.918 0.028-1.161 0-0.398-0.027-0.746-0.133-1.039-0.32-0.265-0.16-0.465-0.281-0.601-0.359-0.211-0.106-0.41-0.172-0.598-0.2-1.309-0.16-2.48-0.722-3.519-1.679-0.028 0.16 0.05 0.347 0.238 0.558 0.105 0.106 0.265 0.254 0.48 0.442 0.266 0.293 0.668 0.613 1.2 0.957 1.093 0.75 2.292 1.121 3.601 1.121z" inkscape:connector-curvature="0"/>
    </clipPath>
    <clipPath id="clipPath334">
      <path id="path336" d="m-11.6 10.485h10v5h-10v-5z" inkscape:connector-curvature="0"/>
    </clipPath>
    <radialGradient id="radialGradient338" gradientUnits="userSpaceOnUse" cy="12.75" cx="-6.5503" r="3.3375">
      <stop id="stop340" style="stop-color:#ffffff;stop-opacity:.14899" offset="0"/>
      <stop id="stop342" style="stop-color:#ffffff;stop-opacity:.14899" offset=".51370"/>
      <stop id="stop344" style="stop-color:#ffffff;stop-opacity:.14899" offset="1"/>
    </radialGradient>
    <mask id="mask346">
      <g id="g348">
        <g id="g350" clip-path="url(#clipPath334)">
          <path id="path352" style="fill:url(#radialGradient338)" d="m-11.6 10.485h10v5h-10v-5z" inkscape:connector-curvature="0"/>
        </g>
      </g>
    </mask>
    <radialGradient id="radialGradient356" gradientUnits="userSpaceOnUse" cy="12.75" cx="-6.5503" r="3.3375">
      <stop id="stop358" style="stop-color:#ffffff" offset="0"/>
      <stop id="stop360" style="stop-color:#ffffff" offset=".51370"/>
      <stop id="stop362" style="stop-color:#ffffff" offset="1"/>
    </radialGradient>
    <clipPath id="clipPath370">
      <path id="path372" d="m13.199 31.727 1.723-0.52-2.402 0.078h-0.961c-0.477 0.028-0.797 0.11-0.957 0.242 0.238 0.184 0.652 0.278 1.238 0.278 0.348 0 0.801-0.024 1.359-0.078z" inkscape:connector-curvature="0"/>
    </clipPath>
    <clipPath id="clipPath378">
      <path id="path380" d="m-2.8504 13.285h6.25v2.5h-6.25v-2.5z" inkscape:connector-curvature="0"/>
    </clipPath>
    <radialGradient id="radialGradient382" gradientUnits="userSpaceOnUse" cy="14.15" cx=".59960" r="1.8998">
      <stop id="stop384" style="stop-color:#ffffff;stop-opacity:.14899" offset="0"/>
      <stop id="stop386" style="stop-color:#ffffff;stop-opacity:.14899" offset=".51370"/>
      <stop id="stop388" style="stop-color:#ffffff;stop-opacity:.14899" offset="1"/>
    </radialGradient>
    <mask id="mask390">
      <g id="g392">
        <g id="g394" clip-path="url(#clipPath378)">
          <path id="path396" style="fill:url(#radialGradient382)" d="m-2.8504 13.285h6.25v2.5h-6.25v-2.5z" inkscape:connector-curvature="0"/>
        </g>
      </g>
    </mask>
    <radialGradient id="radialGradient400" gradientUnits="userSpaceOnUse" cy="14.15" cx=".59960" r="1.8998">
      <stop id="stop402" style="stop-color:#ffffff" offset="0"/>
      <stop id="stop404" style="stop-color:#ffffff" offset=".51370"/>
      <stop id="stop406" style="stop-color:#ffffff" offset="1"/>
    </radialGradient>
    <clipPath id="clipPath414">
      <path id="path416" d="m17.32 30.805 1.282-0.477c-0.375-0.027-0.762 0-1.161 0.078-0.535 0.133-0.855 0.332-0.961 0.602 0.321 0.105 0.602 0.039 0.84-0.203z" inkscape:connector-curvature="0"/>
    </clipPath>
    <clipPath id="clipPath422">
      <path id="path424" d="m4.6496 12.434h3.75v1.25h-3.75v-1.25z" inkscape:connector-curvature="0"/>
    </clipPath>
    <radialGradient id="radialGradient426" gradientUnits="userSpaceOnUse" cy="13.1" cx="6.5996" r=".97580">
      <stop id="stop428" style="stop-color:#ffffff;stop-opacity:.14899" offset="0"/>
      <stop id="stop430" style="stop-color:#ffffff;stop-opacity:.14899" offset=".51370"/>
      <stop id="stop432" style="stop-color:#ffffff;stop-opacity:.14899" offset="1"/>
    </radialGradient>
    <mask id="mask434">
      <g id="g436">
        <g id="g438" clip-path="url(#clipPath422)">
          <path id="path440" style="fill:url(#radialGradient426)" d="m4.6496 12.434h3.75v1.25h-3.75v-1.25z" inkscape:connector-curvature="0"/>
        </g>
      </g>
    </mask>
    <radialGradient id="radialGradient444" gradientUnits="userSpaceOnUse" cy="13.1" cx="6.5996" r=".97580">
      <stop id="stop446" style="stop-color:#ffffff" offset="0"/>
      <stop id="stop448" style="stop-color:#ffffff" offset=".51370"/>
      <stop id="stop450" style="stop-color:#ffffff" offset="1"/>
    </radialGradient>
    <clipPath id="clipPath458">
      <path id="path460" d="m4 29.008 0.398-0.602c-0.531-0.375-0.89-0.535-1.078-0.48-0.054 0.187 0 0.402 0.16 0.64 0.161 0.239 0.332 0.387 0.52 0.442z" inkscape:connector-curvature="0"/>
    </clipPath>
    <clipPath id="clipPath466">
      <path id="path468" d="m-11.6 9.4345h2.5v2.5h-2.5v-2.5z" inkscape:connector-curvature="0"/>
    </clipPath>
    <radialGradient id="radialGradient470" gradientUnits="userSpaceOnUse" cy="10.35" cx="-10.55" r=".6875">
      <stop id="stop472" style="stop-color:#ffffff;stop-opacity:.14899" offset="0"/>
      <stop id="stop474" style="stop-color:#ffffff;stop-opacity:.14899" offset=".51370"/>
      <stop id="stop476" style="stop-color:#ffffff;stop-opacity:.14899" offset="1"/>
    </radialGradient>
    <mask id="mask478">
      <g id="g480">
        <g id="g482" clip-path="url(#clipPath466)">
          <path id="path484" style="fill:url(#radialGradient470)" d="m-11.6 9.4345h2.5v2.5h-2.5v-2.5z" inkscape:connector-curvature="0"/>
        </g>
      </g>
    </mask>
    <radialGradient id="radialGradient488" gradientUnits="userSpaceOnUse" cy="10.35" cx="-10.55" r=".6875">
      <stop id="stop490" style="stop-color:#ffffff" offset="0"/>
      <stop id="stop492" style="stop-color:#ffffff" offset=".51370"/>
      <stop id="stop494" style="stop-color:#ffffff" offset="1"/>
    </radialGradient>
    <clipPath id="clipPath502">
      <path id="path504" d="m23.32 25.207c0 0.32-0.066 0.652-0.199 1-0.242 0.481-0.348 0.785-0.32 0.918 0.265 0 0.519-0.172 0.758-0.52 0.214-0.292 0.336-0.585 0.363-0.878 0-0.293 0.051-0.735 0.16-1.321 0.078-0.558 0.117-0.984 0.117-1.281l-0.879 2.082z" inkscape:connector-curvature="0"/>
    </clipPath>
    <clipPath id="clipPath510">
      <path id="path512" d="m12.15 3.5345h3.75v6.25h-3.75v-6.25z" inkscape:connector-curvature="0"/>
    </clipPath>
    <radialGradient id="radialGradient514" gradientUnits="userSpaceOnUse" cy="6.1499" cx="14.05" r="1.8625">
      <stop id="stop516" style="stop-color:#ffffff;stop-opacity:.14899" offset="0"/>
      <stop id="stop518" style="stop-color:#ffffff;stop-opacity:.14899" offset=".21960"/>
      <stop id="stop520" style="stop-color:#ffffff;stop-opacity:.14899" offset="1"/>
    </radialGradient>
    <mask id="mask522">
      <g id="g524">
        <g id="g526" clip-path="url(#clipPath510)">
          <path id="path528" style="fill:url(#radialGradient514)" d="m12.15 3.5345h3.75v6.25h-3.75v-6.25z" inkscape:connector-curvature="0"/>
        </g>
      </g>
    </mask>
    <radialGradient id="radialGradient532" gradientUnits="userSpaceOnUse" cy="6.1499" cx="14.05" r="1.8625">
      <stop id="stop534" style="stop-color:#000000" offset="0"/>
      <stop id="stop536" style="stop-color:#000000" offset=".21960"/>
      <stop id="stop538" style="stop-color:#000000" offset="1"/>
    </radialGradient>
    <linearGradient id="linearGradient554" y2="-16347" gradientUnits="userSpaceOnUse" x2="26.076" gradientTransform="matrix(.000032653 -.8 .8 -.0008 13091 18.47)" y1="-16347" x1="1.5762">
      <stop id="stop556" style="stop-color:#636363" offset="0"/>
      <stop id="stop558" style="stop-color:#383838" offset="1"/>
    </linearGradient>
    <linearGradient id="linearGradient572" y2="-16347" gradientUnits="userSpaceOnUse" x2="23.251" gradientTransform="matrix(.000036951 -.8 .8 -.0008 13091 18.47)" y1="-16347" x1="1.6006">
      <stop id="stop574" style="stop-color:#363636" offset="0"/>
      <stop id="stop576" style="stop-color:#3b3b3b" offset="1"/>
    </linearGradient>
    <linearGradient id="linearGradient590" y2="-16346" gradientUnits="userSpaceOnUse" x2="22.512" gradientTransform="matrix(.000051037 -.8 .8 -.0008 13090 18.469)" y1="-16346" x1="6.8374">
      <stop id="stop592" style="stop-color:#7a7a7a" offset="0"/>
      <stop id="stop594" style="stop-color:#696969" offset="1"/>
    </linearGradient>
    <linearGradient id="linearGradient608" y2="-16346" gradientUnits="userSpaceOnUse" x2="22.062" gradientTransform="matrix(.000054514 -.8 .8 -.0008 13090 18.47)" y1="-16346" x1="7.3872">
      <stop id="stop610" style="stop-color:#363636" offset="0"/>
      <stop id="stop612" style="stop-color:#4a4a4a" offset="1"/>
    </linearGradient>
    <radialGradient id="radialGradient628" gradientUnits="userSpaceOnUse" cy="-16345" cx="-3.479" gradientTransform="matrix(.00016162 -.8 -.92928 .00016162 -15176 28.786)" r="2.475">
      <stop id="stop630" style="stop-color:#bdbdbd" offset="0"/>
      <stop id="stop632" style="stop-color:#414445" offset="1"/>
    </radialGradient>
    <radialGradient id="radialGradient648" gradientUnits="userSpaceOnUse" cy="1776.5" cx="2994.3" gradientTransform="matrix(.7752 .19776 .04744 -.1424 -2392.1 -311.47)" r="1.2642">
      <stop id="stop650" style="stop-color:#7f8284" offset="0"/>
      <stop id="stop652" style="stop-color:#313233" offset="1"/>
    </radialGradient>
    <radialGradient id="radialGradient668" gradientUnits="userSpaceOnUse" cy="-16345" cx="16.321" gradientTransform="matrix(.00016162 -.8 -.92928 .00016162 -15176 28.786)" r="2.475">
      <stop id="stop670" style="stop-color:#bdbdbd" offset="0"/>
      <stop id="stop672" style="stop-color:#414445" offset="1"/>
    </radialGradient>
    <radialGradient id="radialGradient688" gradientUnits="userSpaceOnUse" cy="1161.9" cx="15495" gradientTransform="matrix(.12296 .79048 .17568 -.0176 -2096 -12216)" r="1.1385">
      <stop id="stop690" style="stop-color:#7f8284" offset="0"/>
      <stop id="stop692" style="stop-color:#313233" offset="1"/>
    </radialGradient>
    <clipPath id="clipPath702">
      <path id="path704" d="m21.52 12.207c0.453-3.094 0.226-5.828-0.68-8.199-0.934-2.375-2.266-3.695-4-3.961-1.758-0.266-3.414 0.613-4.961 2.641-1.57 2-2.586 4.558-3.039 7.679-0.453 3.094-0.215 5.828 0.719 8.199 0.91 2.375 2.242 3.696 4 3.961 1.734 0.239 3.386-0.64 4.961-2.64 1.574-2.028 2.574-4.586 3-7.68z" inkscape:connector-curvature="0"/>
    </clipPath>
    <clipPath id="clipPath710">
      <path id="path712" d="m1248.4 1081.4h21.631v18.153h-21.631v-18.153z" inkscape:connector-curvature="0"/>
    </clipPath>
    <radialGradient id="radialGradient714" gradientUnits="userSpaceOnUse" cy="1090.5" cx="1259.4" r="7.9952">
      <stop id="stop716" style="stop-color:#ffffff;stop-opacity:.73730" offset="0"/>
      <stop id="stop718" style="stop-color:#ffffff;stop-opacity:.46270" offset=".3294"/>
      <stop id="stop720" style="stop-color:#ffffff;stop-opacity:0" offset="1"/>
    </radialGradient>
    <mask id="mask722">
      <g id="g724">
        <g id="g726" clip-path="url(#clipPath710)">
          <path id="path728" style="fill:url(#radialGradient714)" d="m1248.4 1081.4h21.631v18.153h-21.631v-18.153z" inkscape:connector-curvature="0"/>
        </g>
      </g>
    </mask>
    <radialGradient id="radialGradient732" gradientUnits="userSpaceOnUse" cy="1090.5" cx="1259.4" r="7.9952">
      <stop id="stop734" style="stop-color:#1c1c1c" offset="0"/>
      <stop id="stop736" style="stop-color:#121212" offset=".3294"/>
      <stop id="stop738" style="stop-color:#000000" offset="1"/>
    </radialGradient>
    <linearGradient id="linearGradient752" y2="-2.0249" gradientUnits="userSpaceOnUse" x2="2.3003" gradientTransform="matrix(.8 0 0 .8 13.4 17.806)" y1="-2.0249" x1="-2.1997">
      <stop id="stop754" style="stop-color:#adadad" offset="0"/>
      <stop id="stop756" style="stop-color:#b8b8b8" offset=".12550"/>
      <stop id="stop760" style="stop-color:#c5c5c5" offset=".16860"/>
      <stop id="stop762" style="stop-color:#c9c9c9" offset=".2078"/>
      <stop id="stop764" style="stop-color:#6b6b6b" offset=".73730"/>
      <stop id="stop766" style="stop-color:#828282" offset="1"/>
    </linearGradient>
    <clipPath id="clipPath774">
      <path id="path776" d="m11.641 17.887 0.281 0.679c0.32 0.454 0.773 0.719 1.359 0.801v0.039h0.278v-0.039c0.617-0.082 1.082-0.347 1.402-0.801 0.16-0.238 0.254-0.464 0.281-0.679v-4.922h-3.601v4.922z" inkscape:connector-curvature="0"/>
    </clipPath>
    <clipPath id="clipPath782">
      <path id="path784" d="m-3.0003-13.108h6.25v6.2606h-6.25v-6.2606z" inkscape:connector-curvature="0"/>
    </clipPath>
    <radialGradient id="radialGradient786" gradientUnits="userSpaceOnUse" cy="-6.8999" cx=".3003" r="5.5875">
      <stop id="stop788" style="stop-color:#ffffff;stop-opacity:0" offset="0"/>
      <stop id="stop790" style="stop-color:#ffffff" offset="1"/>
    </radialGradient>
    <mask id="mask792">
      <g id="g794">
        <g id="g796" clip-path="url(#clipPath782)">
          <path id="path798" style="fill:url(#radialGradient786)" d="m-3.0003-13.108h6.25v6.2606h-6.25v-6.2606z" inkscape:connector-curvature="0"/>
        </g>
      </g>
    </mask>
    <radialGradient id="radialGradient802" gradientUnits="userSpaceOnUse" cy="-6.8999" cx=".3003" r="5.5875">
      <stop id="stop804" style="stop-color:#000000" offset="0"/>
      <stop id="stop806" style="stop-color:#1c1c1c" offset="1"/>
    </radialGradient>
    <radialGradient id="radialGradient820" gradientUnits="userSpaceOnUse" cy="-7.0498" cx="-1.1997" gradientTransform="matrix(.8 0 0 -.8 13.4 6.5264)" r="8.8125">
      <stop id="stop822" style="stop-color:#ddb8b5" offset="0"/>
      <stop id="stop824" style="stop-color:#bd574c" offset=".21960"/>
      <stop id="stop826" style="stop-color:#a94e45" offset=".38430"/>
      <stop id="stop828" style="stop-color:#7c3a33" offset=".79610"/>
      <stop id="stop830" style="stop-color:#6a322c" offset="1"/>
    </radialGradient>
    <clipPath id="clipPath838">
      <path id="path840" d="m8 5.2188h11v9h-11v-9z" inkscape:connector-curvature="0"/>
    </clipPath>
    <mask id="mask842">
      <g id="g844">
        <g id="g846" clip-path="url(#clipPath838)">
          <path id="path848" style="fill:#000000;fill-opacity:.23830" d="m8 5.2188h11v9h-11v-9z" inkscape:connector-curvature="0"/>
        </g>
      </g>
    </mask>
    <clipPath id="clipPath854">
      <path id="path856" d="m8 5.2188h11v9h-11v-9z" inkscape:connector-curvature="0"/>
    </clipPath>
    <clipPath id="clipPath858">
      <path id="path860" d="m8 6h11v9h-11v-9z" inkscape:connector-curvature="0"/>
    </clipPath>
  </defs>
  <g id="g10" transform="matrix(1.25 0 0 -1.25 0 40.273)">
    <g id="g12">
      <g id="g14">
        <g id="g16" clip-path="url(#clipPath18)">
          <g id="g22" transform="matrix(.8 0 0 -.8 12.28 5.9568)">
            <g id="g46" mask="url(#mask38)">
              <path id="path56" style="fill-rule:evenodd;fill:url(#radialGradient48)" d="m23.32 15.527 0.801 2.481v-1.602c0-0.801-0.375-1.828-1.121-3.078-0.266-0.43-0.719-0.922-1.359-1.48-0.055-0.055-0.602-0.496-1.641-1.321-0.641-0.562-1.105-0.961-1.398-1.199-0.536-0.402-1.028-0.64-1.481-0.723-2.242-0.398-4.148-0.531-5.723-0.398-0.984 0.078-2 0.465-3.039 1.16l-1.16 0.981c0.297-0.129 0.899-0.375 1.801-0.743 1.148-0.453 2.027-0.691 2.641-0.718 0.425 0 1.347 0.039 2.757 0.121 1.254 0 2.497 0.344 3.723 1.039 0.504 0.266 1.332 0.851 2.481 1.758 0.691 0.562 1.519 1.668 2.48 3.32l0.238 0.402z" inkscape:connector-curvature="0"/>
            </g>
          </g>
        </g>
      </g>
      <g id="g58">
        <g id="g60" clip-path="url(#clipPath62)">
          <g id="g66" transform="matrix(.8 0 0 -.8 12.28 31.806)">
            <g id="g90" mask="url(#mask82)">
              <path id="path100" style="fill-rule:evenodd;fill:url(#radialGradient92)" d="m23.801 26.926c0.48-0.641 0.719-1.106 0.719-1.399 0-0.105 0.027-0.547 0.082-1.32 0.023-0.828 0-1.426-0.082-1.801l-0.161 0.442c-0.48 1.465-1.027 2.691-1.64 3.679-0.371 0.559-0.813 1.078-1.321 1.559-0.558 0.535-0.851 0.812-0.878 0.84-0.133 0.16-0.321 0.32-0.559 0.48l-0.359 0.199 1.32-0.519c0.906-0.375 1.437-0.664 1.598-0.879 0.105-0.105 0.292-0.281 0.562-0.519 0.266-0.215 0.504-0.469 0.719-0.762z" inkscape:connector-curvature="0"/>
            </g>
          </g>
        </g>
      </g>
      <g id="g102">
        <g id="g104" clip-path="url(#clipPath106)">
          <g id="g110" transform="matrix(.8 0 0 -.8 12.28 25.327)">
            <g id="g134" mask="url(#mask126)">
              <path id="path144" style="fill-rule:evenodd;fill:url(#radialGradient136)" d="m3.719 29.008c0.668 0.133 1.269 0.199 1.801 0.199-0.665-0.055-1.372-0.414-2.122-1.082-0.238-0.211-0.679-0.934-1.316-2.16-0.75-1.438-1.137-2.52-1.16-3.238-0.055-0.614-0.121-1.161-0.203-1.641-0.078-0.375-0.117-0.664-0.117-0.879v-1.801c0.078-0.535 0.277-1.226 0.597-2.078-0.183 0.293-0.387 0.703-0.597 1.238-0.403 1.012-0.602 2.067-0.602 3.161 0 1.359 0.016 2.214 0.043 2.558 0.023 0.426 0.117 0.801 0.277 1.121 0.242 0.696 0.453 1.266 0.641 1.719 0.32 0.855 0.601 1.387 0.84 1.602 0.215 0.16 0.48 0.414 0.801 0.761 0.343 0.266 0.718 0.438 1.117 0.52z" inkscape:connector-curvature="0"/>
            </g>
          </g>
        </g>
      </g>
      <g id="g146">
        <g id="g148" clip-path="url(#clipPath150)">
          <g id="g154" transform="matrix(.8 0 0 -.8 12.28 43.326)">
            <g id="g178" mask="url(#mask170)">
              <path id="path188" style="fill-rule:evenodd;fill:url(#radialGradient180)" d="m13.602 31.727c-0.614 0.078-1.094 0.105-1.442 0.078-1.039 0-1.668 0.015-1.879 0.043 0.344 0.293 1.078 0.414 2.199 0.359 0.321 0 0.786-0.16 1.399-0.48 0.082-0.043 0.16-0.082 0.242-0.122l-0.519 0.122z" inkscape:connector-curvature="0"/>
            </g>
          </g>
        </g>
      </g>
      <g id="g190">
        <g id="g192" clip-path="url(#clipPath194)">
          <g id="g198" transform="matrix(.8 0 0 -.8 12.28 2.1264)">
            <g id="g222" mask="url(#mask214)">
              <path id="path232" style="fill-rule:evenodd;fill:url(#radialGradient224)" d="m4.68 10.527c-0.055 0.078-0.282 0.598-0.68 1.559-0.293 0.535-0.426 0.973-0.398 1.32 0.105-0.105 0.21-0.265 0.32-0.48 0.105-0.16 0.387-0.426 0.84-0.801 1.066-0.852 1.746-1.492 2.039-1.918l1.398-1.281c-1.039 0.265-1.679 0.441-1.918 0.519-0.75 0.266-1.281 0.629-1.601 1.082z" inkscape:connector-curvature="0"/>
            </g>
          </g>
        </g>
      </g>
      <g id="g234">
        <g id="g236" clip-path="url(#clipPath238)">
          <g id="g242" transform="matrix(.8 0 0 -.8 12.28 -.35363)">
            <g id="g266" mask="url(#mask258)">
              <path id="path276" style="fill-rule:evenodd;fill:url(#radialGradient268)" d="m18.719 10.605 1.281 0.2c-0.293-0.426-0.469-0.68-0.52-0.758-0.187-0.188-0.441-0.32-0.761-0.402-0.453-0.079-0.785-0.157-1-0.239l-0.797-0.199c-1.414-0.215-2.254-0.215-2.524 0 0.082 0.078 0.227 0.133 0.442 0.16 0.105 0 0.254 0.012 0.441 0.039l1.36 0.399c1.144 0.375 1.839 0.64 2.078 0.8z" inkscape:connector-curvature="0"/>
            </g>
          </g>
        </g>
      </g>
      <g id="g278">
        <g id="g280" clip-path="url(#clipPath282)">
          <g id="g286" transform="matrix(.8 0 0 -.8 12.28 19.006)">
            <g id="g310" mask="url(#mask302)">
              <path id="path320" style="fill-rule:evenodd;fill:url(#radialGradient312)" d="m8.281 10.688c-0.613 0.238-1.375 0.812-2.281 1.718l8.199 15c0 0.399 0.266 0.785 0.801 1.16 0.426 0.266 0.879 0.454 1.359 0.559 1.016 0.27 1.856 0.27 2.52 0 1.816-0.746 3.32-2.184 4.519-4.32 0.641-1.012 0.977-1.934 1-2.758l0.122-2.641c0-0.961-0.067-1.625-0.2-2l-0.281-0.601c-0.078-0.106-0.16-0.172-0.238-0.2-0.16-0.027-0.254-0.05-0.281-0.078-0.504-0.214-0.786-0.48-0.84-0.8v-0.321c0.132-0.16 0.199-0.226 0.199-0.199 0-0.215-0.117-0.453-0.359-0.719-0.055-0.136-0.079-0.363-0.079-0.683-0.082-0.184-0.281-0.399-0.601-0.637-0.106-0.109-0.598-0.457-1.481-1.043-0.613-0.613-1.105-1.051-1.48-1.32-0.453-0.344-1.238-0.598-2.359-0.758-0.586-0.082-1.52-0.121-2.801-0.121-1.145 0-2 0.027-2.559 0.082-0.906 0.078-1.867 0.305-2.879 0.68z" inkscape:connector-curvature="0"/>
            </g>
          </g>
        </g>
      </g>
      <g id="g322">
        <g id="g324" clip-path="url(#clipPath326)">
          <g id="g330" transform="matrix(.8 0 0 -.8 12.28 40.606)">
            <g id="g354" mask="url(#mask346)">
              <path id="path364" style="fill-rule:evenodd;fill:url(#radialGradient356)" d="m9.121 31.926 1.399-0.52c-0.532 0.028-0.918 0.028-1.161 0-0.398-0.027-0.746-0.133-1.039-0.32-0.265-0.16-0.465-0.281-0.601-0.359-0.211-0.106-0.41-0.172-0.598-0.2-1.309-0.16-2.48-0.722-3.519-1.679-0.028 0.16 0.05 0.347 0.238 0.558 0.105 0.106 0.265 0.254 0.48 0.442 0.266 0.293 0.668 0.613 1.2 0.957 1.093 0.75 2.292 1.121 3.601 1.121z" inkscape:connector-curvature="0"/>
            </g>
          </g>
        </g>
      </g>
      <g id="g366">
        <g id="g368" clip-path="url(#clipPath370)">
          <g id="g374" transform="matrix(.8 0 0 -.8 12.28 42.846)">
            <g id="g398" mask="url(#mask390)">
              <path id="path408" style="fill-rule:evenodd;fill:url(#radialGradient400)" d="m13.199 31.727 1.723-0.52-2.402 0.078h-0.961c-0.477 0.028-0.797 0.11-0.957 0.242 0.238 0.184 0.652 0.278 1.238 0.278 0.348 0 0.801-0.024 1.359-0.078z" inkscape:connector-curvature="0"/>
            </g>
          </g>
        </g>
      </g>
      <g id="g410">
        <g id="g412" clip-path="url(#clipPath414)">
          <g id="g418" transform="matrix(.8 0 0 -.8 12.28 41.166)">
            <g id="g442" mask="url(#mask434)">
              <path id="path452" style="fill-rule:evenodd;fill:url(#radialGradient444)" d="m17.32 30.805 1.282-0.477c-0.375-0.027-0.762 0-1.161 0.078-0.535 0.133-0.855 0.332-0.961 0.602 0.321 0.105 0.602 0.039 0.84-0.203z" inkscape:connector-curvature="0"/>
            </g>
          </g>
        </g>
      </g>
      <g id="g454">
        <g id="g456" clip-path="url(#clipPath458)">
          <g id="g462" transform="matrix(.8 0 0 -.8 12.28 36.766)">
            <g id="g486" mask="url(#mask478)">
              <path id="path496" style="fill-rule:evenodd;fill:url(#radialGradient488)" d="m4 29.008 0.398-0.602c-0.531-0.375-0.89-0.535-1.078-0.48-0.054 0.187 0 0.402 0.16 0.64 0.161 0.239 0.332 0.387 0.52 0.442z" inkscape:connector-curvature="0"/>
            </g>
          </g>
        </g>
      </g>
      <g id="g498">
        <g id="g500" clip-path="url(#clipPath502)">
          <g id="g506" transform="matrix(.8 0 0 -.8 12.28 30.046)">
            <g id="g530" mask="url(#mask522)">
              <path id="path540" style="fill-rule:evenodd;fill:url(#radialGradient532)" d="m23.32 25.207c0 0.32-0.066 0.652-0.199 1-0.242 0.481-0.348 0.785-0.32 0.918 0.265 0 0.519-0.172 0.758-0.52 0.214-0.292 0.336-0.585 0.363-0.878 0-0.293 0.051-0.735 0.16-1.321 0.078-0.558 0.117-0.984 0.117-1.281l-0.879 2.082z" inkscape:connector-curvature="0"/>
            </g>
          </g>
        </g>
      </g>
      <path id="path542" style="fill-rule:evenodd;fill:#262626" d="m23.48 20.406c0-2.828-1.148-5.32-3.441-7.48-2.238-2.16-4.625-3.133-7.16-2.918-3.067 0.238-5.598 1.211-7.598 2.918-2.133 1.84-3.199 4.148-3.199 6.922 0 2.879 1.066 5.425 3.199 7.64 2.16 2.211 4.692 3.317 7.598 3.317 2.933 0 5.43-1.012 7.48-3.039 2.082-2.028 3.121-4.481 3.121-7.36z" inkscape:connector-curvature="0"/>
      <g id="g544">
        <g id="g546">
          <g id="g552">
            <path id="path560" style="fill-rule:evenodd;fill:url(#linearGradient554)" d="m22.68 20.367c0-2.64-1.039-4.972-3.121-7-2.051-1.972-4.239-2.867-6.559-2.679-2.773 0.21-5.078 1.105-6.918 2.679-1.977 1.707-2.961 3.852-2.961 6.438 0 2.695 0.973 5.066 2.918 7.121 1.977 2.054 4.293 3.082 6.961 3.082s4.945-0.949 6.84-2.84c1.894-1.867 2.84-4.137 2.84-6.801z" inkscape:connector-curvature="0"/>
          </g>
        </g>
      </g>
      <g id="g562">
        <g id="g564">
          <g id="g570">
            <path id="path578" style="fill-rule:evenodd;fill:url(#linearGradient572)" d="m4.719 18.207c0.269-2.32 0.922-4.082 1.961-5.281-2.371 1.707-3.559 4-3.559 6.879 0 2.695 0.973 5.066 2.918 7.121 1.977 2.054 4.293 3.082 6.961 3.082 1.867 0 3.586-0.496 5.16-1.481 1.52-0.988 2.68-2.281 3.481-3.882-0.907 1.121-2.121 2.109-3.641 2.96-1.625 0.907-3.148 1.36-4.559 1.36-2.586 0-4.761-1.078-6.519-3.238-1.762-2.188-2.496-4.696-2.203-7.52z" inkscape:connector-curvature="0"/>
          </g>
        </g>
      </g>
      <g id="g580">
        <g id="g582">
          <g id="g588">
            <path id="path596" style="fill-rule:evenodd;fill:url(#linearGradient590)" d="m19.559 19.688c0-1.68-0.664-3.161-2-4.442-1.305-1.281-2.707-1.867-4.2-1.758-1.785 0.133-3.265 0.719-4.437 1.758-1.254 1.094-1.883 2.465-1.883 4.121 0 1.707 0.629 3.211 1.883 4.52 1.25 1.332 2.73 2 4.437 2s3.161-0.602 4.36-1.801c1.226-1.227 1.84-2.691 1.84-4.398z" inkscape:connector-curvature="0"/>
          </g>
        </g>
      </g>
      <g id="g598">
        <g id="g600">
          <g id="g606">
            <path id="path614" style="fill-rule:evenodd;fill:url(#linearGradient608)" d="m18.879 19.688c0-1.575-0.613-2.961-1.84-4.161-1.172-1.199-2.437-1.746-3.797-1.64-1.629 0.133-2.988 0.679-4.082 1.64-1.144 1.012-1.719 2.293-1.719 3.84 0 1.625 0.575 3.039 1.719 4.238 1.149 1.254 2.508 1.883 4.082 1.883 1.547 0 2.879-0.574 4-1.722 1.09-1.121 1.637-2.481 1.637-4.078z" inkscape:connector-curvature="0"/>
          </g>
        </g>
      </g>
      <path id="path616" style="fill-rule:evenodd;fill:#363636" d="m14.879 27.805c0-0.371-0.145-0.692-0.438-0.957-0.32-0.27-0.695-0.403-1.121-0.403-0.425 0-0.789 0.133-1.078 0.403-0.32 0.265-0.48 0.586-0.48 0.957 0 0.347 0.16 0.656 0.48 0.922 0.293 0.265 0.653 0.398 1.078 0.398 0.426 0 0.801-0.133 1.121-0.398 0.293-0.239 0.438-0.547 0.438-0.922z" inkscape:connector-curvature="0"/>
      <g id="g618">
        <g id="g620">
          <g id="g626">
            <path id="path634" style="fill-rule:evenodd;fill:url(#radialGradient628)" d="m14.68 27.766c0-0.321-0.133-0.586-0.399-0.801-0.242-0.211-0.547-0.32-0.922-0.32-0.371 0-0.691 0.109-0.961 0.32-0.238 0.215-0.359 0.48-0.359 0.801 0 0.32 0.121 0.586 0.359 0.8 0.27 0.215 0.59 0.321 0.961 0.321 0.375 0 0.68-0.106 0.922-0.321 0.266-0.214 0.399-0.48 0.399-0.8z" inkscape:connector-curvature="0"/>
          </g>
        </g>
      </g>
      <path id="path636" style="fill-rule:evenodd;fill:#c3c4c4" d="m14.281 28.168 0.16-0.48-1.961-0.481-0.16 0.438 1.961 0.523z" inkscape:connector-curvature="0"/>
      <g id="g638">
        <g id="g640">
          <g id="g646">
            <path id="path654" style="fill-rule:evenodd;fill:url(#radialGradient648)" d="m14.281 28.168 0.16-0.402-2-0.52-0.121 0.399 1.961 0.523z" inkscape:connector-curvature="0"/>
          </g>
        </g>
      </g>
      <path id="path656" style="fill-rule:evenodd;fill:#363636" d="m14.879 11.926c0-0.371-0.145-0.68-0.438-0.918-0.32-0.27-0.695-0.403-1.121-0.403-0.425 0-0.785 0.133-1.078 0.403-0.32 0.265-0.48 0.57-0.48 0.918 0 0.375 0.16 0.695 0.48 0.961 0.289 0.238 0.653 0.359 1.078 0.359 0.453 0 0.828-0.121 1.121-0.359 0.293-0.266 0.438-0.586 0.438-0.961z" inkscape:connector-curvature="0"/>
      <g id="g658">
        <g id="g660">
          <g id="g666">
            <path id="path674" style="fill-rule:evenodd;fill:url(#radialGradient668)" d="m14.68 11.926c0-0.321-0.133-0.598-0.399-0.84-0.242-0.215-0.547-0.32-0.922-0.32-0.371 0-0.691 0.105-0.961 0.32-0.238 0.242-0.359 0.519-0.359 0.84 0 0.293 0.121 0.562 0.359 0.801 0.27 0.214 0.59 0.32 0.961 0.32 0.348 0 0.657-0.106 0.922-0.32 0.266-0.239 0.399-0.508 0.399-0.801z" inkscape:connector-curvature="0"/>
          </g>
        </g>
      </g>
      <path id="path676" style="fill-rule:evenodd;fill:#c3c4c4" d="m13.281 12.805 0.52-0.039-0.281-1.801-0.52 0.043 0.281 1.797z" inkscape:connector-curvature="0"/>
      <g id="g678">
        <g id="g680">
          <g id="g686">
            <path id="path694" style="fill-rule:evenodd;fill:url(#radialGradient688)" d="m13.281 12.805 0.438-0.039-0.278-1.801-0.441 0.043 0.281 1.797z" inkscape:connector-curvature="0"/>
          </g>
        </g>
      </g>
      <path id="path696" style="fill-rule:evenodd;fill:#1c1c1c" d="m16.559 19.605c0-0.851-0.344-1.625-1.039-2.32-0.665-0.64-1.372-0.933-2.122-0.879-0.906 0.055-1.652 0.348-2.238 0.879-0.64 0.563-0.961 1.281-0.961 2.16 0 0.883 0.321 1.668 0.961 2.36 0.613 0.695 1.36 1.043 2.238 1.043 0.856 0 1.602-0.321 2.243-0.961 0.613-0.614 0.918-1.375 0.918-2.282z" inkscape:connector-curvature="0"/>
      <g id="g698">
        <g id="g700" clip-path="url(#clipPath702)">
          <g id="g706" transform="matrix(.79168 .11496 .204 -1.4045 -1204.4 1398)">
            <g id="g730" mask="url(#mask722)">
              <path id="path740" style="fill-rule:evenodd;fill:url(#radialGradient732)" d="m21.52 12.207c0.453-3.094 0.226-5.828-0.68-8.199-0.934-2.375-2.266-3.695-4-3.961-1.758-0.266-3.414 0.613-4.961 2.641-1.57 2-2.586 4.558-3.039 7.679-0.453 3.094-0.215 5.828 0.719 8.199 0.91 2.375 2.242 3.696 4 3.961 1.734 0.239 3.386-0.64 4.961-2.64 1.574-2.028 2.574-4.586 3-7.68z" inkscape:connector-curvature="0"/>
            </g>
          </g>
        </g>
      </g>
      <g id="g742">
        <g id="g744">
          <g id="g750">
            <path id="path768" style="fill-rule:evenodd;fill:url(#linearGradient752)" d="m11.641 17.887 0.281 0.679c0.32 0.454 0.773 0.719 1.359 0.801v0.039h0.278v-0.039c0.617-0.082 1.082-0.347 1.402-0.801 0.16-0.238 0.254-0.464 0.281-0.679v-4.922h-3.601v4.922z" inkscape:connector-curvature="0"/>
          </g>
        </g>
      </g>
      <g id="g770">
        <g id="g772" clip-path="url(#clipPath774)">
          <g id="g778" transform="matrix(.8 0 0 -1.2778 13.4 3.4688)">
            <g id="g800" mask="url(#mask792)">
              <path id="path808" style="fill-rule:evenodd;fill:url(#radialGradient802)" d="m11.641 17.887 0.281 0.679c0.32 0.454 0.773 0.719 1.359 0.801v0.039h0.278v-0.039c0.617-0.082 1.082-0.347 1.402-0.801 0.16-0.238 0.254-0.464 0.281-0.679v-4.922h-3.601v4.922z" inkscape:connector-curvature="0"/>
            </g>
          </g>
        </g>
      </g>
      <g id="g810">
        <g id="g812">
          <g id="g818">
            <path id="path832" style="fill-rule:evenodd;fill:url(#radialGradient820)" d="m18.48 10.688c0-1.387-0.492-2.586-1.48-3.602-0.984-0.984-2.172-1.481-3.559-1.481-1.386 0-2.586 0.497-3.601 1.481-0.985 0.988-1.481 2.187-1.481 3.602 0 1.386 0.496 2.574 1.481 3.558 1.015 0.988 2.215 1.481 3.601 1.481 1.387 0 2.575-0.493 3.559-1.481 0.988-0.984 1.48-2.172 1.48-3.558z" inkscape:connector-curvature="0"/>
          </g>
        </g>
      </g>
      <g id="g834">
        <g id="g850" mask="url(#mask842)">
          <g id="g862">
            <g id="g864" clip-path="url(#clipPath854)">
              <g id="g866" transform="translate(0 -.78124)">
                <g id="g870">
                  <g id="g872" clip-path="url(#clipPath858)">
                    <g id="g874">
                      <path id="path876" style="fill-rule:evenodd;fill:#000000" d="m17.238 14.789c0.828-0.961 1.242-2.066 1.242-3.32 0-1.387-0.492-2.586-1.48-3.602-0.984-0.984-2.172-1.48-3.559-1.48-1.093 0-2.093 0.336-3 1-0.882 0.64-1.48 1.468-1.8 2.48 1.011-1.144 2.281-1.719 3.8-1.719 1.387 0 2.575 0.493 3.559 1.481 0.988 0.984 1.48 2.172 1.48 3.559 0 0.535-0.082 1.066-0.242 1.601z" inkscape:connector-curvature="0"/>
                    </g>
                  </g>
                </g>
              </g>
            </g>
          </g>
        </g>
      </g>
    </g>
  </g>
<metadata><rdf:RDF><cc:Work><dc:format>image/svg+xml</dc:format><dc:type rdf:resource="http://purl.org/dc/dcmitype/StillImage"/><cc:license rdf:resource="http://creativecommons.org/licenses/publicdomain/"/><dc:publisher><cc:Agent rdf:about="http://openclipart.org/"><dc:title>Openclipart</dc:title></cc:Agent></dc:publisher></cc:Work><cc:License rdf:about="http://creativecommons.org/licenses/publicdomain/"><cc:permits rdf:resource="http://creativecommons.org/ns#Reproduction"/><cc:permits rdf:resource="http://creativecommons.org/ns#Distribution"/><cc:permits rdf:resource="http://creativecommons.org/ns#DerivativeWorks"/></cc:License></rdf:RDF></metadata></svg>
