<?xml version="1.0"?>
<svg 
  xmlns="http://www.w3.org/2000/svg" 
  xmlns:cc="http://creativecommons.org/ns#" 
  xmlns:xlink="http://www.w3.org/1999/xlink" 
  xmlns:dc="http://purl.org/dc/elements/1.1/" 
  xmlns:svg="http://www.w3.org/2000/svg" viewBox="0 0 436.25 618.25" version="1.1">
  <title id="title4005">Switch On</title>
  <defs id="defs2987">
    <linearGradient id="linearGradient3093" y2="350.99" gradientUnits="userSpaceOnUse" x2="229.87" gradientTransform="matrix(-1.1691 0 0 -.85539 485.39 664.08)" y1="745.62" x1="229.87">
      <stop stop-color="#fff" offset="0" />
      <stop stop-color="#fff" stop-opacity="0" offset="1" />
    </linearGradient>
  </defs>
  <g id="g4100">
    <rect id="rect3141" stroke-linejoin="round" rx="29.358" ry="29.358" height="610.25" width="428.25" stroke="#666" y="4" x="4" stroke-width="8" fill="#3c3c3c" />
    <path id="rect2818" stroke-width="10" d="m362.09 593.21h-286.9c-8.864 0-16-7.136-16-16 0 0-35-158.74-35-267.46s35-267.46 35-267.46c0-8.864 7.136-16 16-16h286.9c8.864 0 16 7.136 16 16 0 0 35 158.74 35 267.46s-35 267.46-35 267.46c0 8.864-7.136 16-16 16z" />
    <path id="path2821" d="m362.09 458.93h-286.9c-8.864 0-11.959-3.678-16-12.21 0 0-27-55.937-27-135.5 0-79.558 27-272.73 27-272.73 0-6.7644 7.136-12.21 16-12.21h286.9c8.864 0 16 5.4457 16 12.21 0 0 27 193.17 27 272.73 0 79.558-27 135.5-27 135.5 0 6.7644-7.136 12.21-16 12.21z" stroke-width="10" fill="#3c3c3c" />
    <path id="rect2829" opacity=".142" d="m364.67 591.22h-290.86c-6.5105 0-11.429-4.9315-11.429-11.429l6-107.14c0-6.2486 5.1866-11.429 11.429-11.429h278.86c6.242 0 11.428 5.18 11.428 11.429l6 107.14c0 6.4971-4.918 11.429-11.428 11.429z" stroke-width="10" fill="#fff" />
    <path id="path3697" opacity=".27907" d="m38.047 295.85c136.83 0 262.76-22.686 362.82-60.75-7.6-87.903-22.79-196.59-22.79-196.59 0-6.7644-7.13-12.219-16-12.219h-286.9c-8.87 0-16 5.4543-16 12.219 0 0-23.87 170.79-26.72 257.31 1.87 0.008 3.72 0.031 5.59 0.031z" stroke-width="10" fill="url(#linearGradient3093)" />
    <rect id="svg_18" height="0" width="1" y="475.76" x="-105.36" stroke-width="0" fill="#4c4c4c" />
    <path id="path3679-1" d="m374.57 567.97c-1.624-37.086-2.905-70.912-4.4399-108.01 0.40698-2.602 0.42395-2.93 1.83-4.286 7.4769-8.621 13.98-26.167 17.469-41.469 0.005-0.022 0.026-0.041 0.031-0.063 0.006-0.019-0.006-0.043 0-0.062 17.867-55.232 18.446-113.96 12.875-170.97-0.00098-0.01 0.00097-0.021 0-0.031-3.621-43.919-8.613-87.694-14-131.41 11.768 66.002 20.803 132.5 21.125 199.47-0.00098 0.068-0.00098 0.078 0 0.031-1.939 87.508-16.455 171.01-33.801 256.76-0.15197 0.867-1.0289 0.763-1.089 0.03z" stroke-width="10" fill="#cccccf" />

  </g>
</svg>
